<?xml version="1.0" standalone="no"?>
<svg viewBox="0 0 200 200" xmlns="http://www.w3.org/2000/svg">
  <path fill="#FF0066" d="M34.3,-63.8C38.9,-56.8,33.2,-36.3,35.2,-23.4C37.2,-10.6,46.8,-5.3,53.5,3.9C60.3,13,64,26.1,57.1,30.5C50.3,35,32.9,30.9,21.6,38.6C10.3,46.4,5.1,66.1,-1.4,68.5C-8,71,-16.1,56.4,-26,47.8C-35.9,39.3,-47.7,36.8,-47.2,29.8C-46.6,22.9,-33.8,11.4,-31.4,1.4C-28.9,-8.6,-36.9,-17.2,-37.5,-24.4C-38.1,-31.5,-31.4,-37.2,-23.9,-42.5C-16.5,-47.9,-8.2,-52.9,3.3,-58.6C14.9,-64.4,29.7,-70.8,34.3,-63.8Z" transform="translate(100 100)" />
</svg>
