<?xml version="1.0" standalone="no"?>
<svg viewBox="0 0 200 200" xmlns="http://www.w3.org/2000/svg">
  <path fill="#F1C21B" d="M43.5,-75.7C56.1,-68,66.1,-55.9,73.9,-42.6C81.6,-29.3,87.3,-14.6,88.7,0.8C90.1,16.3,87.3,32.5,79.5,45.9C71.8,59.4,59.2,70,45.1,77C31,84,15.5,87.5,0.1,87.4C-15.4,87.2,-30.8,83.6,-43.5,75.8C-56.2,68,-66.3,56,-73.3,42.7C-80.2,29.4,-84,14.7,-85.1,-0.6C-86.1,-15.9,-84.4,-31.8,-77.1,-44.5C-69.7,-57.2,-56.8,-66.6,-43.1,-73.7C-29.3,-80.8,-14.6,-85.5,0.4,-86.1C15.4,-86.8,30.8,-83.4,43.5,-75.7Z" transform="translate(100 100)" />
</svg>
